<svg width="113" height="112" viewBox="0 0 113 112" fill="none" xmlns="http://www.w3.org/2000/svg">
<g filter="url(#filter0_d_1_545)">
<rect x="4" width="2.83784" height="2.83784" rx="1.34409" fill="#FFE7B6"/>
<rect x="15.3514" width="2.83784" height="2.83784" rx="1.34409" fill="#FFE7B6"/>
<rect x="26.7028" width="2.83784" height="2.83784" rx="1.34409" fill="#FFE7B6"/>
<rect x="38.054" width="2.83784" height="2.83784" rx="1.34409" fill="#FFE7B6"/>
<rect x="49.4055" width="2.83784" height="2.83784" rx="1.34409" fill="#FFE7B6"/>
<rect x="60.7568" width="2.83784" height="2.83784" rx="1.34409" fill="#FFE7B6"/>
<rect x="72.1083" width="2.83784" height="2.83784" rx="1.34409" fill="#FFE7B6"/>
<rect x="83.4597" width="2.83784" height="2.83784" rx="1.34409" fill="#FFE7B6"/>
<rect x="94.8109" width="2.83784" height="2.83784" rx="1.34409" fill="#FFE7B6"/>
<rect x="106.162" width="2.83784" height="2.83784" rx="1.34409" fill="#FFE7B6"/>
<rect x="4" y="11.3513" width="2.83784" height="2.83784" rx="1.34409" fill="#FFE7B6"/>
<rect x="15.3514" y="11.3513" width="2.83784" height="2.83784" rx="1.34409" fill="#FFE7B6"/>
<rect x="26.7028" y="11.3513" width="2.83784" height="2.83784" rx="1.34409" fill="#FFE7B6"/>
<rect x="38.054" y="11.3513" width="2.83784" height="2.83784" rx="1.34409" fill="#FFE7B6"/>
<rect x="49.4055" y="11.3513" width="2.83784" height="2.83784" rx="1.34409" fill="#FFE7B6"/>
<rect x="60.7568" y="11.3513" width="2.83784" height="2.83784" rx="1.34409" fill="#FFE7B6"/>
<rect x="72.1083" y="11.3513" width="2.83784" height="2.83784" rx="1.34409" fill="#FFE7B6"/>
<rect x="83.4597" y="11.3513" width="2.83784" height="2.83784" rx="1.34409" fill="#FFE7B6"/>
<rect x="94.8109" y="11.3513" width="2.83784" height="2.83784" rx="1.34409" fill="#FFE7B6"/>
<rect x="106.162" y="11.3513" width="2.83784" height="2.83784" rx="1.34409" fill="#FFE7B6"/>
<rect x="4" y="22.7027" width="2.83784" height="2.83784" rx="1.34409" fill="#FFE7B6"/>
<rect x="15.3514" y="22.7027" width="2.83784" height="2.83784" rx="1.34409" fill="#FFE7B6"/>
<rect x="26.7028" y="22.7027" width="2.83784" height="2.83784" rx="1.34409" fill="#FFE7B6"/>
<rect x="38.054" y="22.7027" width="2.83784" height="2.83784" rx="1.34409" fill="#FFE7B6"/>
<rect x="49.4055" y="22.7027" width="2.83784" height="2.83784" rx="1.34409" fill="#FFE7B6"/>
<rect x="60.7568" y="22.7027" width="2.83784" height="2.83784" rx="1.34409" fill="#FFE7B6"/>
<rect x="72.1083" y="22.7027" width="2.83784" height="2.83784" rx="1.34409" fill="#FFE7B6"/>
<rect x="83.4597" y="22.7027" width="2.83784" height="2.83784" rx="1.34409" fill="#FFE7B6"/>
<rect x="94.8109" y="22.7027" width="2.83784" height="2.83784" rx="1.34409" fill="#FFE7B6"/>
<rect x="106.162" y="22.7027" width="2.83784" height="2.83784" rx="1.34409" fill="#FFE7B6"/>
<rect x="4" y="34.0541" width="2.83784" height="2.83784" rx="1.34409" fill="#FFE7B6"/>
<rect x="15.3514" y="34.0541" width="2.83784" height="2.83784" rx="1.34409" fill="#FFE7B6"/>
<rect x="26.7028" y="34.0541" width="2.83784" height="2.83784" rx="1.34409" fill="#FFE7B6"/>
<rect x="38.054" y="34.0541" width="2.83784" height="2.83784" rx="1.34409" fill="#FFE7B6"/>
<rect x="49.4055" y="34.0541" width="2.83784" height="2.83784" rx="1.34409" fill="#FFE7B6"/>
<rect x="60.7568" y="34.0541" width="2.83784" height="2.83784" rx="1.34409" fill="#FFE7B6"/>
<rect x="72.1083" y="34.0541" width="2.83784" height="2.83784" rx="1.34409" fill="#FFE7B6"/>
<rect x="83.4597" y="34.0541" width="2.83784" height="2.83784" rx="1.34409" fill="#FFE7B6"/>
<rect x="94.8109" y="34.0541" width="2.83784" height="2.83784" rx="1.34409" fill="#FFE7B6"/>
<rect x="106.162" y="34.0541" width="2.83784" height="2.83784" rx="1.34409" fill="#FFE7B6"/>
<rect x="4" y="45.4054" width="2.83784" height="2.83784" rx="1.34409" fill="#FFE7B6"/>
<rect x="15.3514" y="45.4054" width="2.83784" height="2.83784" rx="1.34409" fill="#FFE7B6"/>
<rect x="26.7028" y="45.4054" width="2.83784" height="2.83784" rx="1.34409" fill="#FFE7B6"/>
<rect x="38.054" y="45.4054" width="2.83784" height="2.83784" rx="1.34409" fill="#FFE7B6"/>
<rect x="49.4055" y="45.4054" width="2.83784" height="2.83784" rx="1.34409" fill="#FFE7B6"/>
<rect x="60.7568" y="45.4054" width="2.83784" height="2.83784" rx="1.34409" fill="#FFE7B6"/>
<rect x="72.1083" y="45.4054" width="2.83784" height="2.83784" rx="1.34409" fill="#FFE7B6"/>
<rect x="83.4597" y="45.4054" width="2.83784" height="2.83784" rx="1.34409" fill="#FFE7B6"/>
<rect x="94.8109" y="45.4054" width="2.83784" height="2.83784" rx="1.34409" fill="#FFE7B6"/>
<rect x="106.162" y="45.4054" width="2.83784" height="2.83784" rx="1.34409" fill="#FFE7B6"/>
<rect x="4" y="56.7568" width="2.83784" height="2.83784" rx="1.34409" fill="#FFE7B6"/>
<rect x="15.3514" y="56.7568" width="2.83784" height="2.83784" rx="1.34409" fill="#FFE7B6"/>
<rect x="26.7028" y="56.7568" width="2.83784" height="2.83784" rx="1.34409" fill="#FFE7B6"/>
<rect x="38.054" y="56.7568" width="2.83784" height="2.83784" rx="1.34409" fill="#FFE7B6"/>
<rect x="49.4055" y="56.7568" width="2.83784" height="2.83784" rx="1.34409" fill="#FFE7B6"/>
<rect x="60.7568" y="56.7568" width="2.83784" height="2.83784" rx="1.34409" fill="#FFE7B6"/>
<rect x="72.1083" y="56.7568" width="2.83784" height="2.83784" rx="1.34409" fill="#FFE7B6"/>
<rect x="83.4597" y="56.7568" width="2.83784" height="2.83784" rx="1.34409" fill="#FFE7B6"/>
<rect x="94.8109" y="56.7568" width="2.83784" height="2.83784" rx="1.34409" fill="#FFE7B6"/>
<rect x="106.162" y="56.7568" width="2.83784" height="2.83784" rx="1.34409" fill="#FFE7B6"/>
<rect x="4" y="68.1081" width="2.83784" height="2.83784" rx="1.34409" fill="#FFE7B6"/>
<rect x="4" y="79.0561" width="2.83784" height="2.83784" rx="1.34409" fill="#FFE7B6"/>
<rect x="4" y="90.0041" width="2.83784" height="2.83784" rx="1.34409" fill="#FFE7B6"/>
<rect x="4" y="100.952" width="2.83784" height="2.83784" rx="1.34409" fill="#FFE7B6"/>
<rect x="15.3514" y="68.1081" width="2.83784" height="2.83784" rx="1.34409" fill="#FFE7B6"/>
<rect x="15.3514" y="79.0561" width="2.83784" height="2.83784" rx="1.34409" fill="#FFE7B6"/>
<rect x="15.3514" y="90.0041" width="2.83784" height="2.83784" rx="1.34409" fill="#FFE7B6"/>
<rect x="15.3514" y="100.952" width="2.83784" height="2.83784" rx="1.34409" fill="#FFE7B6"/>
<rect x="26.7028" y="68.1081" width="2.83784" height="2.83784" rx="1.34409" fill="#FFE7B6"/>
<rect x="26.7028" y="79.0561" width="2.83784" height="2.83784" rx="1.34409" fill="#FFE7B6"/>
<rect x="26.7028" y="90.0041" width="2.83784" height="2.83784" rx="1.34409" fill="#FFE7B6"/>
<rect x="26.7028" y="100.952" width="2.83784" height="2.83784" rx="1.34409" fill="#FFE7B6"/>
<rect x="38.054" y="68.1081" width="2.83784" height="2.83784" rx="1.34409" fill="#FFE7B6"/>
<rect x="38.054" y="79.0561" width="2.83784" height="2.83784" rx="1.34409" fill="#FFE7B6"/>
<rect x="38.054" y="90.0041" width="2.83784" height="2.83784" rx="1.34409" fill="#FFE7B6"/>
<rect x="38.054" y="100.952" width="2.83784" height="2.83784" rx="1.34409" fill="#FFE7B6"/>
<rect x="49.4055" y="68.1081" width="2.83784" height="2.83784" rx="1.34409" fill="#FFE7B6"/>
<rect x="49.4055" y="79.0561" width="2.83784" height="2.83784" rx="1.34409" fill="#FFE7B6"/>
<rect x="49.4055" y="90.0041" width="2.83784" height="2.83784" rx="1.34409" fill="#FFE7B6"/>
<rect x="49.4055" y="100.952" width="2.83784" height="2.83784" rx="1.34409" fill="#FFE7B6"/>
<rect x="60.7568" y="68.1081" width="2.83784" height="2.83784" rx="1.34409" fill="#FFE7B6"/>
<rect x="60.7568" y="79.0561" width="2.83784" height="2.83784" rx="1.34409" fill="#FFE7B6"/>
<rect x="60.7568" y="90.0041" width="2.83784" height="2.83784" rx="1.34409" fill="#FFE7B6"/>
<rect x="60.7568" y="100.952" width="2.83784" height="2.83784" rx="1.34409" fill="#FFE7B6"/>
<rect x="72.1083" y="68.1081" width="2.83784" height="2.83784" rx="1.34409" fill="#FFE7B6"/>
<rect x="72.1083" y="79.0561" width="2.83784" height="2.83784" rx="1.34409" fill="#FFE7B6"/>
<rect x="72.1083" y="90.0041" width="2.83784" height="2.83784" rx="1.34409" fill="#FFE7B6"/>
<rect x="72.1083" y="100.952" width="2.83784" height="2.83784" rx="1.34409" fill="#FFE7B6"/>
<rect x="83.4597" y="68.1081" width="2.83784" height="2.83784" rx="1.34409" fill="#FFE7B6"/>
<rect x="83.4597" y="79.0561" width="2.83784" height="2.83784" rx="1.34409" fill="#FFE7B6"/>
<rect x="83.4597" y="90.0041" width="2.83784" height="2.83784" rx="1.34409" fill="#FFE7B6"/>
<rect x="83.4597" y="100.952" width="2.83784" height="2.83784" rx="1.34409" fill="#FFE7B6"/>
<rect x="94.8109" y="68.1081" width="2.83784" height="2.83784" rx="1.34409" fill="#FFE7B6"/>
<rect x="94.8109" y="79.0561" width="2.83784" height="2.83784" rx="1.34409" fill="#FFE7B6"/>
<rect x="94.8109" y="90.0041" width="2.83784" height="2.83784" rx="1.34409" fill="#FFE7B6"/>
<rect x="94.8109" y="100.952" width="2.83784" height="2.83784" rx="1.34409" fill="#FFE7B6"/>
<rect x="106.162" y="68.1081" width="2.83784" height="2.83784" rx="1.34409" fill="#FFE7B6"/>
<rect x="106.162" y="79.0561" width="2.83784" height="2.83784" rx="1.34409" fill="#FFE7B6"/>
<rect x="106.162" y="90.0041" width="2.83784" height="2.83784" rx="1.34409" fill="#FFE7B6"/>
<rect x="106.162" y="100.952" width="2.83784" height="2.83784" rx="1.34409" fill="#FFE7B6"/>
</g>
<defs>
<filter id="filter0_d_1_545" x="0" y="0" width="113" height="111.79" filterUnits="userSpaceOnUse" color-interpolation-filters="sRGB">
<feFlood flood-opacity="0" result="BackgroundImageFix"/>
<feColorMatrix in="SourceAlpha" type="matrix" values="0 0 0 0 0 0 0 0 0 0 0 0 0 0 0 0 0 0 127 0" result="hardAlpha"/>
<feOffset dy="4"/>
<feGaussianBlur stdDeviation="2"/>
<feComposite in2="hardAlpha" operator="out"/>
<feColorMatrix type="matrix" values="0 0 0 0 0 0 0 0 0 0 0 0 0 0 0 0 0 0 0.25 0"/>
<feBlend mode="normal" in2="BackgroundImageFix" result="effect1_dropShadow_1_545"/>
<feBlend mode="normal" in="SourceGraphic" in2="effect1_dropShadow_1_545" result="shape"/>
</filter>
</defs>
</svg>
